<mxfile host="app.diagrams.net" modified="2023-12-06T20:55:21.051Z" agent="Mozilla/5.0 (Windows NT 10.0; Win64; x64) AppleWebKit/537.36 (KHTML, like Gecko) Chrome/120.0.0.0 Safari/537.36" etag="kAq0Rlgu5P1kGiF8OJxI" version="22.1.5" type="device">
  <diagram id="C5RBs43oDa-KdzZeNtuy" name="Page-1">
    <mxGraphModel dx="2206" dy="1148" grid="1" gridSize="10" guides="1" tooltips="1" connect="1" arrows="1" fold="1" page="1" pageScale="1" pageWidth="827" pageHeight="1169" math="0" shadow="0">
      <root>
        <mxCell id="WIyWlLk6GJQsqaUBKTNV-0" />
        <mxCell id="WIyWlLk6GJQsqaUBKTNV-1" parent="WIyWlLk6GJQsqaUBKTNV-0" />
        <mxCell id="OhfcnGThwX1pYeev4To1-54" value="" style="edgeStyle=orthogonalEdgeStyle;shape=connector;rounded=0;orthogonalLoop=1;jettySize=auto;html=1;shadow=0;labelBackgroundColor=none;strokeColor=default;strokeWidth=1;align=center;verticalAlign=middle;fontFamily=Helvetica;fontSize=11;fontColor=default;endArrow=block;endFill=0;endSize=8;" edge="1" parent="WIyWlLk6GJQsqaUBKTNV-1" source="OhfcnGThwX1pYeev4To1-51" target="OhfcnGThwX1pYeev4To1-53">
          <mxGeometry relative="1" as="geometry" />
        </mxCell>
        <mxCell id="OhfcnGThwX1pYeev4To1-51" value="Start" style="ellipse;whiteSpace=wrap;html=1;fontFamily=Helvetica;fontSize=11;fontColor=default;" vertex="1" parent="WIyWlLk6GJQsqaUBKTNV-1">
          <mxGeometry x="75" y="10" width="80" height="50" as="geometry" />
        </mxCell>
        <mxCell id="OhfcnGThwX1pYeev4To1-56" value="" style="edgeStyle=orthogonalEdgeStyle;shape=connector;rounded=0;orthogonalLoop=1;jettySize=auto;html=1;shadow=0;labelBackgroundColor=none;strokeColor=default;strokeWidth=1;align=center;verticalAlign=middle;fontFamily=Helvetica;fontSize=11;fontColor=default;endArrow=block;endFill=0;endSize=8;deletable=1;" edge="1" parent="WIyWlLk6GJQsqaUBKTNV-1" source="OhfcnGThwX1pYeev4To1-53" target="OhfcnGThwX1pYeev4To1-55">
          <mxGeometry relative="1" as="geometry" />
        </mxCell>
        <mxCell id="OhfcnGThwX1pYeev4To1-53" value="Arrange a between 4 and 7 nodes in a circle" style="whiteSpace=wrap;html=1;fontSize=11;" vertex="1" parent="WIyWlLk6GJQsqaUBKTNV-1">
          <mxGeometry x="55" y="100" width="120" height="60" as="geometry" />
        </mxCell>
        <mxCell id="OhfcnGThwX1pYeev4To1-58" value="" style="edgeStyle=orthogonalEdgeStyle;shape=connector;rounded=0;orthogonalLoop=1;jettySize=auto;html=1;shadow=0;labelBackgroundColor=none;strokeColor=default;strokeWidth=1;align=center;verticalAlign=middle;fontFamily=Helvetica;fontSize=11;fontColor=default;endArrow=block;endFill=0;endSize=8;" edge="1" parent="WIyWlLk6GJQsqaUBKTNV-1" source="OhfcnGThwX1pYeev4To1-55" target="OhfcnGThwX1pYeev4To1-57">
          <mxGeometry relative="1" as="geometry" />
        </mxCell>
        <mxCell id="OhfcnGThwX1pYeev4To1-55" value="Connect nodes around the circle to form a regular polygon" style="whiteSpace=wrap;html=1;fontSize=11;" vertex="1" parent="WIyWlLk6GJQsqaUBKTNV-1">
          <mxGeometry x="55" y="200" width="120" height="60" as="geometry" />
        </mxCell>
        <mxCell id="OhfcnGThwX1pYeev4To1-60" value="" style="edgeStyle=orthogonalEdgeStyle;shape=connector;rounded=0;orthogonalLoop=1;jettySize=auto;html=1;shadow=0;labelBackgroundColor=none;strokeColor=default;strokeWidth=1;align=center;verticalAlign=middle;fontFamily=Helvetica;fontSize=11;fontColor=default;endArrow=block;endFill=0;endSize=8;" edge="1" parent="WIyWlLk6GJQsqaUBKTNV-1" source="OhfcnGThwX1pYeev4To1-57" target="OhfcnGThwX1pYeev4To1-59">
          <mxGeometry relative="1" as="geometry" />
        </mxCell>
        <mxCell id="OhfcnGThwX1pYeev4To1-57" value="counter = 0" style="whiteSpace=wrap;html=1;fontSize=11;" vertex="1" parent="WIyWlLk6GJQsqaUBKTNV-1">
          <mxGeometry x="70" y="300" width="90" height="20" as="geometry" />
        </mxCell>
        <mxCell id="OhfcnGThwX1pYeev4To1-63" value="" style="edgeStyle=orthogonalEdgeStyle;shape=connector;rounded=0;orthogonalLoop=1;jettySize=auto;html=1;shadow=0;labelBackgroundColor=none;strokeColor=default;strokeWidth=1;align=center;verticalAlign=middle;fontFamily=Helvetica;fontSize=11;fontColor=default;endArrow=block;endFill=0;endSize=8;" edge="1" parent="WIyWlLk6GJQsqaUBKTNV-1" source="OhfcnGThwX1pYeev4To1-59" target="OhfcnGThwX1pYeev4To1-62">
          <mxGeometry relative="1" as="geometry" />
        </mxCell>
        <mxCell id="OhfcnGThwX1pYeev4To1-64" value="Yes" style="edgeLabel;html=1;align=center;verticalAlign=middle;resizable=0;points=[];fontSize=11;fontFamily=Helvetica;fontColor=default;" vertex="1" connectable="0" parent="OhfcnGThwX1pYeev4To1-63">
          <mxGeometry x="-0.264" y="3" relative="1" as="geometry">
            <mxPoint y="-11" as="offset" />
          </mxGeometry>
        </mxCell>
        <mxCell id="OhfcnGThwX1pYeev4To1-82" style="edgeStyle=orthogonalEdgeStyle;shape=connector;rounded=0;orthogonalLoop=1;jettySize=auto;html=1;exitX=0.5;exitY=1;exitDx=0;exitDy=0;entryX=0.5;entryY=0;entryDx=0;entryDy=0;shadow=0;labelBackgroundColor=none;strokeColor=default;strokeWidth=1;align=center;verticalAlign=middle;fontFamily=Helvetica;fontSize=11;fontColor=default;endArrow=block;endFill=0;endSize=8;" edge="1" parent="WIyWlLk6GJQsqaUBKTNV-1" source="OhfcnGThwX1pYeev4To1-59" target="OhfcnGThwX1pYeev4To1-79">
          <mxGeometry relative="1" as="geometry" />
        </mxCell>
        <mxCell id="OhfcnGThwX1pYeev4To1-83" value="No" style="edgeLabel;html=1;align=center;verticalAlign=middle;resizable=0;points=[];fontSize=11;fontFamily=Helvetica;fontColor=default;" vertex="1" connectable="0" parent="OhfcnGThwX1pYeev4To1-82">
          <mxGeometry x="-0.2828" y="-1" relative="1" as="geometry">
            <mxPoint x="-10" y="-3" as="offset" />
          </mxGeometry>
        </mxCell>
        <mxCell id="OhfcnGThwX1pYeev4To1-59" value="&lt;blockquote style=&quot;margin: 0 0 0 40px; border: none; padding: 0px;&quot;&gt;&lt;/blockquote&gt;&lt;span style=&quot;background-color: initial;&quot;&gt;&lt;div style=&quot;&quot;&gt;&lt;span style=&quot;background-color: initial;&quot;&gt;counter &amp;lt; {number depending&lt;/span&gt;&lt;/div&gt;&lt;div style=&quot;&quot;&gt;&lt;span style=&quot;background-color: initial;&quot;&gt;on&amp;nbsp;&lt;/span&gt;&lt;span style=&quot;background-color: initial;&quot;&gt;how many nodes where&amp;nbsp;&lt;/span&gt;&lt;/div&gt;&lt;div style=&quot;&quot;&gt;&lt;span style=&quot;background-color: initial;&quot;&gt;put in circle}&lt;/span&gt;&lt;/div&gt;&lt;/span&gt;" style="rhombus;whiteSpace=wrap;html=1;fontSize=11;" vertex="1" parent="WIyWlLk6GJQsqaUBKTNV-1">
          <mxGeometry x="10" y="368" width="210" height="120" as="geometry" />
        </mxCell>
        <mxCell id="OhfcnGThwX1pYeev4To1-66" value="" style="edgeStyle=orthogonalEdgeStyle;shape=connector;rounded=0;orthogonalLoop=1;jettySize=auto;html=1;shadow=0;labelBackgroundColor=none;strokeColor=default;strokeWidth=1;align=center;verticalAlign=middle;fontFamily=Helvetica;fontSize=11;fontColor=default;endArrow=block;endFill=0;endSize=8;" edge="1" parent="WIyWlLk6GJQsqaUBKTNV-1" source="OhfcnGThwX1pYeev4To1-62" target="OhfcnGThwX1pYeev4To1-65">
          <mxGeometry relative="1" as="geometry" />
        </mxCell>
        <mxCell id="OhfcnGThwX1pYeev4To1-62" value="Tentatively connect two nodes that aren&#39;t connected" style="whiteSpace=wrap;html=1;fontSize=11;" vertex="1" parent="WIyWlLk6GJQsqaUBKTNV-1">
          <mxGeometry x="268.75" y="398" width="120" height="60" as="geometry" />
        </mxCell>
        <mxCell id="OhfcnGThwX1pYeev4To1-72" value="" style="edgeStyle=orthogonalEdgeStyle;shape=connector;rounded=0;orthogonalLoop=1;jettySize=auto;html=1;shadow=0;labelBackgroundColor=none;strokeColor=default;strokeWidth=1;align=center;verticalAlign=middle;fontFamily=Helvetica;fontSize=11;fontColor=default;endArrow=block;endFill=0;endSize=8;entryX=1;entryY=0.5;entryDx=0;entryDy=0;exitX=0.5;exitY=0;exitDx=0;exitDy=0;" edge="1" parent="WIyWlLk6GJQsqaUBKTNV-1" source="OhfcnGThwX1pYeev4To1-65" target="OhfcnGThwX1pYeev4To1-71">
          <mxGeometry relative="1" as="geometry" />
        </mxCell>
        <mxCell id="OhfcnGThwX1pYeev4To1-78" value="Yes" style="edgeLabel;html=1;align=center;verticalAlign=middle;resizable=0;points=[];fontSize=11;fontFamily=Helvetica;fontColor=default;" vertex="1" connectable="0" parent="OhfcnGThwX1pYeev4To1-72">
          <mxGeometry x="0.0417" relative="1" as="geometry">
            <mxPoint x="35" y="28" as="offset" />
          </mxGeometry>
        </mxCell>
        <mxCell id="OhfcnGThwX1pYeev4To1-75" style="edgeStyle=orthogonalEdgeStyle;shape=connector;rounded=0;orthogonalLoop=1;jettySize=auto;html=1;exitX=1;exitY=0.5;exitDx=0;exitDy=0;entryX=1;entryY=0.5;entryDx=0;entryDy=0;shadow=0;labelBackgroundColor=none;strokeColor=default;strokeWidth=1;align=center;verticalAlign=middle;fontFamily=Helvetica;fontSize=11;fontColor=default;endArrow=block;endFill=0;endSize=8;" edge="1" parent="WIyWlLk6GJQsqaUBKTNV-1" source="OhfcnGThwX1pYeev4To1-65" target="OhfcnGThwX1pYeev4To1-69">
          <mxGeometry relative="1" as="geometry" />
        </mxCell>
        <mxCell id="OhfcnGThwX1pYeev4To1-77" value="No" style="edgeLabel;html=1;align=center;verticalAlign=middle;resizable=0;points=[];fontSize=11;fontFamily=Helvetica;fontColor=default;" vertex="1" connectable="0" parent="OhfcnGThwX1pYeev4To1-75">
          <mxGeometry x="-0.5659" y="2" relative="1" as="geometry">
            <mxPoint x="1" y="-9" as="offset" />
          </mxGeometry>
        </mxCell>
        <mxCell id="OhfcnGThwX1pYeev4To1-65" value="New connection causes&lt;br&gt;an intersection" style="rhombus;whiteSpace=wrap;html=1;fontSize=11;" vertex="1" parent="WIyWlLk6GJQsqaUBKTNV-1">
          <mxGeometry x="453.75" y="382" width="150" height="92" as="geometry" />
        </mxCell>
        <mxCell id="OhfcnGThwX1pYeev4To1-73" style="edgeStyle=orthogonalEdgeStyle;shape=connector;rounded=0;orthogonalLoop=1;jettySize=auto;html=1;exitX=0;exitY=0.5;exitDx=0;exitDy=0;entryX=1;entryY=0.5;entryDx=0;entryDy=0;shadow=0;labelBackgroundColor=none;strokeColor=default;strokeWidth=1;align=center;verticalAlign=middle;fontFamily=Helvetica;fontSize=11;fontColor=default;endArrow=block;endFill=0;endSize=8;" edge="1" parent="WIyWlLk6GJQsqaUBKTNV-1" source="OhfcnGThwX1pYeev4To1-69" target="OhfcnGThwX1pYeev4To1-71">
          <mxGeometry relative="1" as="geometry" />
        </mxCell>
        <mxCell id="OhfcnGThwX1pYeev4To1-69" value="Add new connection to list of connections" style="rounded=0;whiteSpace=wrap;html=1;fontFamily=Helvetica;fontSize=11;fontColor=default;" vertex="1" parent="WIyWlLk6GJQsqaUBKTNV-1">
          <mxGeometry x="580" y="310" width="100" height="40" as="geometry" />
        </mxCell>
        <mxCell id="OhfcnGThwX1pYeev4To1-74" style="edgeStyle=orthogonalEdgeStyle;shape=connector;rounded=0;orthogonalLoop=1;jettySize=auto;html=1;entryX=0.5;entryY=0;entryDx=0;entryDy=0;shadow=0;labelBackgroundColor=none;strokeColor=default;strokeWidth=1;align=center;verticalAlign=middle;fontFamily=Helvetica;fontSize=11;fontColor=default;endArrow=block;endFill=0;endSize=8;" edge="1" parent="WIyWlLk6GJQsqaUBKTNV-1" source="OhfcnGThwX1pYeev4To1-71" target="OhfcnGThwX1pYeev4To1-59">
          <mxGeometry relative="1" as="geometry" />
        </mxCell>
        <mxCell id="OhfcnGThwX1pYeev4To1-71" value="counter = counter + 1" style="whiteSpace=wrap;html=1;fontSize=11;" vertex="1" parent="WIyWlLk6GJQsqaUBKTNV-1">
          <mxGeometry x="268.75" y="310" width="120" height="40" as="geometry" />
        </mxCell>
        <mxCell id="OhfcnGThwX1pYeev4To1-88" value="" style="edgeStyle=orthogonalEdgeStyle;shape=connector;rounded=0;orthogonalLoop=1;jettySize=auto;html=1;shadow=0;labelBackgroundColor=none;strokeColor=default;strokeWidth=1;align=center;verticalAlign=middle;fontFamily=Helvetica;fontSize=11;fontColor=default;endArrow=block;endFill=0;endSize=8;" edge="1" parent="WIyWlLk6GJQsqaUBKTNV-1" source="OhfcnGThwX1pYeev4To1-79" target="OhfcnGThwX1pYeev4To1-87">
          <mxGeometry relative="1" as="geometry" />
        </mxCell>
        <mxCell id="OhfcnGThwX1pYeev4To1-79" value="Place two new nodes in middle of circle, counter = 0" style="whiteSpace=wrap;html=1;fontSize=11;" vertex="1" parent="WIyWlLk6GJQsqaUBKTNV-1">
          <mxGeometry x="60" y="520" width="110" height="40" as="geometry" />
        </mxCell>
        <mxCell id="OhfcnGThwX1pYeev4To1-90" value="" style="edgeStyle=orthogonalEdgeStyle;shape=connector;rounded=0;orthogonalLoop=1;jettySize=auto;html=1;shadow=0;labelBackgroundColor=none;strokeColor=default;strokeWidth=1;align=center;verticalAlign=middle;fontFamily=Helvetica;fontSize=11;fontColor=default;endArrow=block;endFill=0;endSize=8;" edge="1" parent="WIyWlLk6GJQsqaUBKTNV-1" source="OhfcnGThwX1pYeev4To1-87" target="OhfcnGThwX1pYeev4To1-89">
          <mxGeometry relative="1" as="geometry" />
        </mxCell>
        <mxCell id="OhfcnGThwX1pYeev4To1-91" value="Yes" style="edgeLabel;html=1;align=center;verticalAlign=middle;resizable=0;points=[];fontSize=11;fontFamily=Helvetica;fontColor=default;" vertex="1" connectable="0" parent="OhfcnGThwX1pYeev4To1-90">
          <mxGeometry x="-0.0852" y="3" relative="1" as="geometry">
            <mxPoint y="-7" as="offset" />
          </mxGeometry>
        </mxCell>
        <mxCell id="OhfcnGThwX1pYeev4To1-115" value="" style="edgeStyle=orthogonalEdgeStyle;shape=connector;rounded=0;orthogonalLoop=1;jettySize=auto;html=1;shadow=0;labelBackgroundColor=none;strokeColor=default;strokeWidth=1;align=center;verticalAlign=middle;fontFamily=Helvetica;fontSize=11;fontColor=default;endArrow=block;endFill=0;endSize=8;" edge="1" parent="WIyWlLk6GJQsqaUBKTNV-1" source="OhfcnGThwX1pYeev4To1-87" target="OhfcnGThwX1pYeev4To1-114">
          <mxGeometry relative="1" as="geometry" />
        </mxCell>
        <mxCell id="OhfcnGThwX1pYeev4To1-87" value="counter &amp;lt; 10" style="rhombus;whiteSpace=wrap;html=1;fontSize=11;" vertex="1" parent="WIyWlLk6GJQsqaUBKTNV-1">
          <mxGeometry x="75" y="630" width="80" height="80" as="geometry" />
        </mxCell>
        <mxCell id="OhfcnGThwX1pYeev4To1-112" style="edgeStyle=orthogonalEdgeStyle;shape=connector;rounded=0;orthogonalLoop=1;jettySize=auto;html=1;exitX=1;exitY=0.5;exitDx=0;exitDy=0;entryX=0;entryY=0.5;entryDx=0;entryDy=0;shadow=0;labelBackgroundColor=none;strokeColor=default;strokeWidth=1;align=center;verticalAlign=middle;fontFamily=Helvetica;fontSize=11;fontColor=default;endArrow=block;endFill=0;endSize=8;" edge="1" parent="WIyWlLk6GJQsqaUBKTNV-1" source="OhfcnGThwX1pYeev4To1-89" target="OhfcnGThwX1pYeev4To1-106">
          <mxGeometry relative="1" as="geometry" />
        </mxCell>
        <mxCell id="OhfcnGThwX1pYeev4To1-89" value="Tentatively connect node to any other" style="whiteSpace=wrap;html=1;fontSize=11;" vertex="1" parent="WIyWlLk6GJQsqaUBKTNV-1">
          <mxGeometry x="215" y="640" width="120" height="60" as="geometry" />
        </mxCell>
        <mxCell id="OhfcnGThwX1pYeev4To1-92" value="For each of the&lt;br&gt;middle nodes" style="strokeWidth=2;html=1;shape=mxgraph.flowchart.annotation_2;align=left;labelPosition=right;pointerEvents=1;fontFamily=Helvetica;fontSize=11;fontColor=default;rotation=0;flipH=1;" vertex="1" parent="WIyWlLk6GJQsqaUBKTNV-1">
          <mxGeometry x="620" y="550" width="40" height="160" as="geometry" />
        </mxCell>
        <mxCell id="OhfcnGThwX1pYeev4To1-104" style="edgeStyle=orthogonalEdgeStyle;shape=connector;rounded=0;orthogonalLoop=1;jettySize=auto;html=1;exitX=1;exitY=0.5;exitDx=0;exitDy=0;entryX=1;entryY=0.5;entryDx=0;entryDy=0;shadow=0;labelBackgroundColor=none;strokeColor=default;strokeWidth=1;align=center;verticalAlign=middle;fontFamily=Helvetica;fontSize=11;fontColor=default;endArrow=block;endFill=0;endSize=8;" edge="1" source="OhfcnGThwX1pYeev4To1-106" target="OhfcnGThwX1pYeev4To1-108" parent="WIyWlLk6GJQsqaUBKTNV-1">
          <mxGeometry relative="1" as="geometry" />
        </mxCell>
        <mxCell id="OhfcnGThwX1pYeev4To1-105" value="No" style="edgeLabel;html=1;align=center;verticalAlign=middle;resizable=0;points=[];fontSize=11;fontFamily=Helvetica;fontColor=default;" vertex="1" connectable="0" parent="OhfcnGThwX1pYeev4To1-104">
          <mxGeometry x="-0.5659" y="2" relative="1" as="geometry">
            <mxPoint x="1" y="-9" as="offset" />
          </mxGeometry>
        </mxCell>
        <mxCell id="OhfcnGThwX1pYeev4To1-110" style="edgeStyle=orthogonalEdgeStyle;shape=connector;rounded=0;orthogonalLoop=1;jettySize=auto;html=1;exitX=0.5;exitY=0;exitDx=0;exitDy=0;entryX=1;entryY=0.5;entryDx=0;entryDy=0;shadow=0;labelBackgroundColor=none;strokeColor=default;strokeWidth=1;align=center;verticalAlign=middle;fontFamily=Helvetica;fontSize=11;fontColor=default;endArrow=block;endFill=0;endSize=8;" edge="1" parent="WIyWlLk6GJQsqaUBKTNV-1" source="OhfcnGThwX1pYeev4To1-106" target="OhfcnGThwX1pYeev4To1-109">
          <mxGeometry relative="1" as="geometry" />
        </mxCell>
        <mxCell id="OhfcnGThwX1pYeev4To1-111" value="Yes" style="edgeLabel;html=1;align=center;verticalAlign=middle;resizable=0;points=[];fontSize=11;fontFamily=Helvetica;fontColor=default;" vertex="1" connectable="0" parent="OhfcnGThwX1pYeev4To1-110">
          <mxGeometry x="-0.6843" y="1" relative="1" as="geometry">
            <mxPoint x="-13" y="7" as="offset" />
          </mxGeometry>
        </mxCell>
        <mxCell id="OhfcnGThwX1pYeev4To1-106" value="New connection causes&lt;br&gt;an intersection" style="rhombus;whiteSpace=wrap;html=1;fontSize=11;" vertex="1" parent="WIyWlLk6GJQsqaUBKTNV-1">
          <mxGeometry x="380" y="624" width="150" height="92" as="geometry" />
        </mxCell>
        <mxCell id="OhfcnGThwX1pYeev4To1-107" style="edgeStyle=orthogonalEdgeStyle;shape=connector;rounded=0;orthogonalLoop=1;jettySize=auto;html=1;exitX=0;exitY=0.5;exitDx=0;exitDy=0;entryX=1;entryY=0.5;entryDx=0;entryDy=0;shadow=0;labelBackgroundColor=none;strokeColor=default;strokeWidth=1;align=center;verticalAlign=middle;fontFamily=Helvetica;fontSize=11;fontColor=default;endArrow=block;endFill=0;endSize=8;" edge="1" source="OhfcnGThwX1pYeev4To1-108" target="OhfcnGThwX1pYeev4To1-109" parent="WIyWlLk6GJQsqaUBKTNV-1">
          <mxGeometry relative="1" as="geometry" />
        </mxCell>
        <mxCell id="OhfcnGThwX1pYeev4To1-108" value="Add new connection to list of connections" style="rounded=0;whiteSpace=wrap;html=1;fontFamily=Helvetica;fontSize=11;fontColor=default;" vertex="1" parent="WIyWlLk6GJQsqaUBKTNV-1">
          <mxGeometry x="503.75" y="560" width="100" height="40" as="geometry" />
        </mxCell>
        <mxCell id="OhfcnGThwX1pYeev4To1-113" style="edgeStyle=orthogonalEdgeStyle;shape=connector;rounded=0;orthogonalLoop=1;jettySize=auto;html=1;exitX=0;exitY=0.5;exitDx=0;exitDy=0;entryX=0.5;entryY=0;entryDx=0;entryDy=0;shadow=0;labelBackgroundColor=none;strokeColor=default;strokeWidth=1;align=center;verticalAlign=middle;fontFamily=Helvetica;fontSize=11;fontColor=default;endArrow=block;endFill=0;endSize=8;" edge="1" parent="WIyWlLk6GJQsqaUBKTNV-1" source="OhfcnGThwX1pYeev4To1-109" target="OhfcnGThwX1pYeev4To1-87">
          <mxGeometry relative="1" as="geometry" />
        </mxCell>
        <mxCell id="OhfcnGThwX1pYeev4To1-109" value="counter = counter + 1" style="whiteSpace=wrap;html=1;fontSize=11;" vertex="1" parent="WIyWlLk6GJQsqaUBKTNV-1">
          <mxGeometry x="215" y="565" width="120" height="30" as="geometry" />
        </mxCell>
        <mxCell id="OhfcnGThwX1pYeev4To1-118" value="" style="edgeStyle=orthogonalEdgeStyle;shape=connector;rounded=0;orthogonalLoop=1;jettySize=auto;html=1;shadow=0;labelBackgroundColor=none;strokeColor=default;strokeWidth=1;align=center;verticalAlign=middle;fontFamily=Helvetica;fontSize=11;fontColor=default;endArrow=block;endFill=0;endSize=8;" edge="1" parent="WIyWlLk6GJQsqaUBKTNV-1" source="OhfcnGThwX1pYeev4To1-114" target="OhfcnGThwX1pYeev4To1-117">
          <mxGeometry relative="1" as="geometry" />
        </mxCell>
        <mxCell id="OhfcnGThwX1pYeev4To1-120" value="Yes" style="edgeLabel;html=1;align=center;verticalAlign=middle;resizable=0;points=[];fontSize=11;fontFamily=Helvetica;fontColor=default;" vertex="1" connectable="0" parent="OhfcnGThwX1pYeev4To1-118">
          <mxGeometry x="0.136" relative="1" as="geometry">
            <mxPoint x="-1" y="-10" as="offset" />
          </mxGeometry>
        </mxCell>
        <mxCell id="OhfcnGThwX1pYeev4To1-122" style="edgeStyle=orthogonalEdgeStyle;shape=connector;rounded=0;orthogonalLoop=1;jettySize=auto;html=1;exitX=0.5;exitY=1;exitDx=0;exitDy=0;shadow=0;labelBackgroundColor=none;strokeColor=default;strokeWidth=1;align=center;verticalAlign=middle;fontFamily=Helvetica;fontSize=11;fontColor=default;endArrow=block;endFill=0;endSize=8;entryX=0.5;entryY=0;entryDx=0;entryDy=0;" edge="1" parent="WIyWlLk6GJQsqaUBKTNV-1" source="OhfcnGThwX1pYeev4To1-114" target="OhfcnGThwX1pYeev4To1-124">
          <mxGeometry relative="1" as="geometry">
            <mxPoint x="115.03703703703695" y="940" as="targetPoint" />
          </mxGeometry>
        </mxCell>
        <mxCell id="OhfcnGThwX1pYeev4To1-123" value="No" style="edgeLabel;html=1;align=center;verticalAlign=middle;resizable=0;points=[];fontSize=11;fontFamily=Helvetica;fontColor=default;" vertex="1" connectable="0" parent="OhfcnGThwX1pYeev4To1-122">
          <mxGeometry x="-0.3761" y="4" relative="1" as="geometry">
            <mxPoint x="-14" y="2" as="offset" />
          </mxGeometry>
        </mxCell>
        <mxCell id="OhfcnGThwX1pYeev4To1-114" value="Total number of intersections = 0" style="rhombus;whiteSpace=wrap;html=1;fontSize=11;" vertex="1" parent="WIyWlLk6GJQsqaUBKTNV-1">
          <mxGeometry x="57.5" y="800" width="115" height="80" as="geometry" />
        </mxCell>
        <mxCell id="OhfcnGThwX1pYeev4To1-119" style="edgeStyle=orthogonalEdgeStyle;shape=connector;rounded=0;orthogonalLoop=1;jettySize=auto;html=1;exitX=1;exitY=0.5;exitDx=0;exitDy=0;entryX=0.5;entryY=0;entryDx=0;entryDy=0;shadow=0;labelBackgroundColor=none;strokeColor=default;strokeWidth=1;align=center;verticalAlign=middle;fontFamily=Helvetica;fontSize=11;fontColor=default;endArrow=block;endFill=0;endSize=8;" edge="1" parent="WIyWlLk6GJQsqaUBKTNV-1" source="OhfcnGThwX1pYeev4To1-117" target="OhfcnGThwX1pYeev4To1-114">
          <mxGeometry relative="1" as="geometry">
            <Array as="points">
              <mxPoint x="390" y="840" />
              <mxPoint x="390" y="760" />
              <mxPoint x="115" y="760" />
            </Array>
          </mxGeometry>
        </mxCell>
        <mxCell id="OhfcnGThwX1pYeev4To1-117" value="Randomise position of each node" style="whiteSpace=wrap;html=1;fontSize=11;" vertex="1" parent="WIyWlLk6GJQsqaUBKTNV-1">
          <mxGeometry x="250" y="810" width="120" height="60" as="geometry" />
        </mxCell>
        <mxCell id="OhfcnGThwX1pYeev4To1-124" value="End" style="ellipse;whiteSpace=wrap;html=1;fontFamily=Helvetica;fontSize=11;fontColor=default;" vertex="1" parent="WIyWlLk6GJQsqaUBKTNV-1">
          <mxGeometry x="55" y="950" width="120" height="80" as="geometry" />
        </mxCell>
        <mxCell id="OhfcnGThwX1pYeev4To1-125" value="&lt;font style=&quot;font-size: 15px;&quot;&gt;Algorithm to generate connections between nodes to form a planar &lt;br&gt;graph, even when only straight arcs are allowed&lt;/font&gt;" style="text;html=1;align=center;verticalAlign=middle;resizable=0;points=[];autosize=1;strokeColor=none;fillColor=none;fontSize=11;fontFamily=Helvetica;fontColor=default;" vertex="1" parent="WIyWlLk6GJQsqaUBKTNV-1">
          <mxGeometry x="293.75" y="80" width="470" height="50" as="geometry" />
        </mxCell>
      </root>
    </mxGraphModel>
  </diagram>
</mxfile>
